<?xml version="1.0" encoding="utf-8"?>
<!-- Generator: Adobe Illustrator 15.1.0, SVG Export Plug-In . SVG Version: 6.00 Build 0)  -->
<!DOCTYPE svg PUBLIC "-//W3C//DTD SVG 1.1//EN" "http://www.w3.org/Graphics/SVG/1.1/DTD/svg11.dtd">
<svg version="1.1" id="Layer_1" xmlns="http://www.w3.org/2000/svg" xmlns:xlink="http://www.w3.org/1999/xlink" x="0px" y="0px"
	 width="6.938px" height="10.25px" viewBox="0 0 6.938 10.25" enable-background="new 0 0 6.938 10.25" xml:space="preserve">
<g>
	<path fill="#29282A" d="M6.531,3.688c0.104,0,0.198,0.037,0.281,0.109C6.896,3.87,6.938,3.958,6.938,4.062v5.812
		c0,0.104-0.042,0.192-0.125,0.267c-0.083,0.072-0.177,0.108-0.28,0.108H0.406c-0.104,0-0.197-0.036-0.28-0.108S0,9.979,0,9.875
		V4.062C0,3.958,0.042,3.87,0.125,3.797c0.083-0.073,0.177-0.109,0.28-0.109h0.72C1.104,3.667,1.094,3.641,1.094,3.609
		c0-0.032,0-0.057,0-0.078V2.344c0-0.646,0.234-1.198,0.703-1.656C2.266,0.229,2.823,0,3.469,0c0.646,0,1.203,0.229,1.672,0.688
		C5.61,1.146,5.844,1.699,5.844,2.344v1.188c0,0.021,0,0.047,0,0.078c0,0.031-0.011,0.057-0.032,0.078H6.531z M6.156,9.5V4.469
		H0.781V9.5H6.156z M1.875,3.531c0,0.021,0,0.047,0,0.078c0,0.031,0,0.058,0,0.078h3.188c0-0.021,0-0.047,0-0.078
		c0-0.031,0-0.057,0-0.078V2.344c0-0.438-0.155-0.812-0.469-1.125C4.281,0.906,3.906,0.75,3.469,0.75S2.656,0.906,2.344,1.219
		C2.032,1.532,1.875,1.906,1.875,2.344V3.531z M4.125,6.719c0,0.083-0.017,0.167-0.047,0.25C4.047,7.052,4,7.125,3.938,7.188v0.031
		v0.594c0,0.104-0.037,0.193-0.108,0.267C3.755,8.15,3.667,8.188,3.562,8.188H3.375c-0.104,0-0.193-0.035-0.267-0.108
		C3.036,8.005,3,7.917,3,7.812V7.219V7.188C2.938,7.125,2.891,7.052,2.859,6.969c-0.03-0.083-0.047-0.167-0.047-0.25
		C2.812,6.531,2.875,6.375,3,6.25s0.28-0.188,0.469-0.188S3.812,6.125,3.938,6.25S4.125,6.531,4.125,6.719z"/>
</g>
</svg>
