<?xml version="1.0" encoding="utf-8"?>
<!-- Generator: Adobe Illustrator 15.1.0, SVG Export Plug-In . SVG Version: 6.00 Build 0)  -->
<!DOCTYPE svg PUBLIC "-//W3C//DTD SVG 1.1//EN" "http://www.w3.org/Graphics/SVG/1.1/DTD/svg11.dtd">
<svg version="1.1" id="Layer_1" xmlns="http://www.w3.org/2000/svg" xmlns:xlink="http://www.w3.org/1999/xlink" x="0px" y="0px"
	 width="22.65px" height="19.09px" viewBox="0 0 22.65 19.09" enable-background="new 0 0 22.65 19.09" xml:space="preserve">
<path fill="#FFFFFF" d="M13.18,19.09c-0.23,0-0.457-0.098-0.617-0.277L7.98,14.65c-2.523-0.008-4.607-0.781-6.031-2.236
	C0.691,11.128,0,9.348,0,7.401c0-1.98,0.769-3.837,2.16-5.23C3.559,0.771,5.42,0,7.4,0h7.848c4.082,0,7.402,3.32,7.402,7.401
	c0,4.082-3.32,7.401-7.402,7.401H14.31l-0.308,3.519c-0.022,0.332-0.241,0.617-0.557,0.725C13.359,19.075,13.27,19.09,13.18,19.09
	 M8.348,12.996c0.233,0,0.459,0.1,0.616,0.277l3.525,2.973l0.24-2.225c0.014-0.508,0.565-0.869,1-0.869h1.518
	c3.172,0,5.752-2.58,5.752-5.751c0-3.171-2.58-5.751-5.752-5.751H7.4c-1.539,0-2.986,0.6-4.074,1.687
	C2.244,4.418,1.65,5.861,1.65,7.401c0,1.513,0.524,2.883,1.479,3.858C4.242,12.398,5.936,13,8.024,13l0.303-0.005L8.348,12.996
	L8.348,12.996z"/>
</svg>
