<?xml version="1.0" encoding="utf-8"?>
<!-- Generator: Adobe Illustrator 15.1.0, SVG Export Plug-In . SVG Version: 6.00 Build 0)  -->
<!DOCTYPE svg PUBLIC "-//W3C//DTD SVG 1.1//EN" "http://www.w3.org/Graphics/SVG/1.1/DTD/svg11.dtd">
<svg version="1.1" id="Layer_1" xmlns="http://www.w3.org/2000/svg" xmlns:xlink="http://www.w3.org/1999/xlink" x="0px" y="0px"
	 width="22.098px" height="22.096px" viewBox="0 0 22.098 22.096" enable-background="new 0 0 22.098 22.096" xml:space="preserve">
<path fill="#959595" d="M11.049,18.602c-4.165,0-7.554-3.389-7.554-7.554s3.389-7.553,7.554-7.553s7.555,3.388,7.555,7.553
	S15.214,18.602,11.049,18.602z M11.049,4.495c-3.614,0-6.554,2.938-6.554,6.553s2.939,6.554,6.554,6.554
	c3.613,0,6.555-2.938,6.555-6.554C17.604,7.434,14.662,4.495,11.049,4.495z"/>
<path fill="#BF2155" d="M11.048,0C4.956,0,0,4.956,0,11.048c0,6.093,4.956,11.048,11.048,11.048c6.093,0,11.05-4.955,11.05-11.048
	C22.098,4.956,17.141,0,11.048,0z M11.048,20.096C6.059,20.096,2,16.037,2,11.048S6.059,2,11.048,2c4.99,0,9.05,4.059,9.05,9.048
	S16.038,20.096,11.048,20.096z"/>
</svg>
