<?xml version="1.0" encoding="utf-8"?>
<!-- Generator: Adobe Illustrator 15.1.0, SVG Export Plug-In . SVG Version: 6.00 Build 0)  -->
<!DOCTYPE svg PUBLIC "-//W3C//DTD SVG 1.1//EN" "http://www.w3.org/Graphics/SVG/1.1/DTD/svg11.dtd">
<svg version="1.1" id="Layer_1" xmlns="http://www.w3.org/2000/svg" xmlns:xlink="http://www.w3.org/1999/xlink" x="0px" y="0px"
	 width="58.787px" height="79.154px" viewBox="0 0 58.787 79.154" enable-background="new 0 0 58.787 79.154" xml:space="preserve">
<g>
	<path fill="#FFFFFF" d="M0,79.154C0.308,67.119,2.199,58.595,5.67,53.58c3.472-5.012,11.377-7.522,23.723-7.522
		c12.343,0,20.251,2.51,23.723,7.522c3.472,5.016,5.359,13.54,5.67,25.575H0z M42.817,32.402c-3.703,3.703-8.18,5.555-13.424,5.555
		c-5.247,0-9.721-1.852-13.424-5.555s-5.555-8.177-5.555-13.424c0-5.244,1.852-9.721,5.555-13.424S24.146,0,29.394,0
		c5.244,0,9.721,1.852,13.424,5.555s5.555,8.18,5.555,13.424C48.372,24.226,46.521,28.699,42.817,32.402z"/>
</g>
</svg>
