<?xml version="1.0" encoding="utf-8"?>
<!-- Generator: Adobe Illustrator 15.1.0, SVG Export Plug-In . SVG Version: 6.00 Build 0)  -->
<!DOCTYPE svg PUBLIC "-//W3C//DTD SVG 1.1//EN" "http://www.w3.org/Graphics/SVG/1.1/DTD/svg11.dtd">
<svg version="1.1" id="Layer_1" xmlns="http://www.w3.org/2000/svg" xmlns:xlink="http://www.w3.org/1999/xlink" x="0px" y="0px"
	 width="6.938px" height="10.25px" viewBox="0 0 6.938 10.25" enable-background="new 0 0 6.938 10.25" xml:space="preserve">
<g>
	<path fill="#414042" d="M0,4.062v5.812c0,0.104,0.042,0.192,0.125,0.267c0.083,0.072,0.176,0.108,0.278,0.108h6.129
		c0.103,0,0.195-0.035,0.278-0.108c0.083-0.072,0.125-0.162,0.125-0.266V4.062c0-0.104-0.042-0.192-0.126-0.265
		C6.728,3.724,6.635,3.688,6.531,3.688H6.11C6.375,3.304,6.506,2.863,6.5,2.364C6.493,1.709,6.261,1.152,5.804,0.695
		S4.791,0.007,4.136,0C3.48-0.008,2.923,0.218,2.467,0.674l-0.84,0.84C1.613,1.529,1.594,1.547,1.572,1.568
		C1.561,1.58,1.561,1.596,1.555,1.609C1.474,1.68,1.42,1.78,1.42,1.896c0,0.213,0.172,0.385,0.385,0.385
		C1.908,2.281,2,2.24,2.068,2.175l0.001,0.001C2.07,2.174,2.073,2.172,2.074,2.171C2.076,2.169,2.078,2.167,2.08,2.165
		c0.014-0.013,0.025-0.026,0.045-0.044C2.147,2.1,2.165,2.08,2.18,2.067l0.84-0.84C3.33,0.916,3.704,0.762,4.147,0.762
		c0.442,0.001,0.819,0.157,1.127,0.465c0.31,0.308,0.465,0.685,0.464,1.127C5.736,2.795,5.583,3.17,5.274,3.48L5.066,3.688h-4.66
		c-0.104,0-0.197,0.037-0.28,0.109C0.041,3.87-0.001,3.958,0,4.062z M0.781,4.469h5.375V9.5H0.781V4.469z"/>
	<path fill="#414042" d="M4.078,6.969c0.028-0.082,0.047-0.166,0.047-0.25c0-0.188-0.063-0.344-0.188-0.469S3.658,6.062,3.469,6.062
		S3.126,6.125,3,6.25S2.812,6.531,2.812,6.719c0,0.084,0.019,0.168,0.047,0.25C2.89,7.053,2.937,7.125,2.999,7.188v0.031v0.594
		c0,0.105,0.037,0.193,0.106,0.269c0.075,0.069,0.163,0.106,0.27,0.106h0.187c0.105,0,0.194-0.035,0.269-0.106
		c0.071-0.074,0.107-0.162,0.107-0.269V7.219V7.188C3.999,7.125,4.046,7.053,4.078,6.969z"/>
</g>
</svg>
