<?xml version="1.0" encoding="utf-8"?>
<!-- Generator: Adobe Illustrator 15.1.0, SVG Export Plug-In . SVG Version: 6.00 Build 0)  -->
<!DOCTYPE svg PUBLIC "-//W3C//DTD SVG 1.1//EN" "http://www.w3.org/Graphics/SVG/1.1/DTD/svg11.dtd">
<svg version="1.1" id="Layer_1" xmlns="http://www.w3.org/2000/svg" xmlns:xlink="http://www.w3.org/1999/xlink" x="0px" y="0px"
	 width="24px" height="24px" viewBox="0 0 24 24" enable-background="new 0 0 24 24" xml:space="preserve">
<path fill="#414042" d="M24,12c0,6.627-5.372,12-12,12S0,18.627,0,12S5.372,0,12,0S24,5.373,24,12"/>
<path fill="#FFFFFF" d="M12.216,15.176c-1.247,0-2.26,1.012-2.26,2.26c0,1.246,1.013,2.258,2.26,2.258
	c1.247,0,2.259-1.012,2.259-2.258C14.475,16.188,13.463,15.176,12.216,15.176"/>
<path fill="#FFFFFF" d="M10.596,12.469c0.072,0.789,0.746,1.438,1.568,1.438c0.824,0,1.499-0.648,1.568-1.438l0.638-6.09V6.375
	c0-0.006,0.002-0.015,0.002-0.02c0-1.147-0.988-2.078-2.208-2.078c-1.216,0-2.207,0.93-2.207,2.076c0,0.007,0.002,0.014,0.002,0.021
	L9.957,6.382L10.596,12.469z"/>
</svg>
