<?xml version="1.0" encoding="utf-8"?>
<!-- Generator: Adobe Illustrator 15.1.0, SVG Export Plug-In . SVG Version: 6.00 Build 0)  -->
<!DOCTYPE svg PUBLIC "-//W3C//DTD SVG 1.1//EN" "http://www.w3.org/Graphics/SVG/1.1/DTD/svg11.dtd">
<svg version="1.1" id="Layer_1" xmlns="http://www.w3.org/2000/svg" xmlns:xlink="http://www.w3.org/1999/xlink" x="0px" y="0px"
	 width="22.096px" height="22.096px" viewBox="0 0 22.096 22.096" enable-background="new 0 0 22.096 22.096" xml:space="preserve">
<path fill="#959595" d="M11.048,22.096C4.956,22.096,0,17.141,0,11.048C0,4.956,4.956,0,11.048,0
	c6.093,0,11.048,4.956,11.048,11.048C22.096,17.141,17.141,22.096,11.048,22.096z M11.048,1C5.508,1,1,5.507,1,11.048
	c0,5.54,4.508,10.048,10.048,10.048s10.048-4.508,10.048-10.048C21.098,5.507,16.589,1,11.048,1z"/>
<path fill="#959595" d="M11.049,18.602c-4.165,0-7.554-3.389-7.554-7.554s3.389-7.553,7.554-7.553s7.555,3.388,7.555,7.553
	S15.214,18.602,11.049,18.602z M11.049,4.495c-3.614,0-6.554,2.939-6.554,6.553c0,3.614,2.94,6.554,6.554,6.554
	c3.613,0,6.555-2.938,6.555-6.554C17.604,7.434,14.662,4.495,11.049,4.495z"/>
</svg>
