<?xml version="1.0" encoding="utf-8"?>
<!-- Generator: Adobe Illustrator 15.1.0, SVG Export Plug-In . SVG Version: 6.00 Build 0)  -->
<!DOCTYPE svg PUBLIC "-//W3C//DTD SVG 1.1//EN" "http://www.w3.org/Graphics/SVG/1.1/DTD/svg11.dtd">
<svg version="1.1" id="Layer_1" xmlns="http://www.w3.org/2000/svg" xmlns:xlink="http://www.w3.org/1999/xlink" x="0px" y="0px"
	 width="19.667px" height="19.666px" viewBox="0 0 19.667 19.666" enable-background="new 0 0 19.667 19.666" xml:space="preserve">
<path fill="#BF2356" d="M16.426,0H3.24C2.229,0,1.333,0.479,0.738,1.211H0.719v0.023C0.276,1.788,0,2.48,0,3.24v13.186
	c0,1.782,1.458,3.24,3.24,3.24h13.187c1.782,0,3.24-1.458,3.24-3.24V3.24C19.667,1.458,18.208,0,16.426,0z"/>
<path fill="#FFFFFF" d="M16.758,3.811l-1.467-0.99c-0.455-0.308-1.115-0.172-1.416,0.284l-5.857,8.923L5.071,9.943
	c-0.447-0.314-1.112-0.195-1.422,0.253L2.64,11.663c-0.318,0.461-0.205,1.102,0.252,1.424l5.292,3.748
	c0.171,0.121,0.373,0.188,0.581,0.188c0.339,0,0.652-0.17,0.838-0.455l7.438-11.338C17.348,4.763,17.223,4.128,16.758,3.811z
	 M8.765,16.511L8.765,16.511v0.012V16.511z"/>
</svg>
