<?xml version="1.0" encoding="utf-8"?>
<!-- Generator: Adobe Illustrator 15.1.0, SVG Export Plug-In . SVG Version: 6.00 Build 0)  -->
<!DOCTYPE svg PUBLIC "-//W3C//DTD SVG 1.1//EN" "http://www.w3.org/Graphics/SVG/1.1/DTD/svg11.dtd">
<svg version="1.1" id="Layer_1" xmlns="http://www.w3.org/2000/svg" xmlns:xlink="http://www.w3.org/1999/xlink" x="0px" y="0px"
	 width="20.473px" height="20.473px" viewBox="0 0 20.473 20.473" enable-background="new 0 0 20.473 20.473" xml:space="preserve">
<g>
	<path fill="#676767" d="M15.905,9.236h-4.437V4.8c0-0.552-0.448-1-1-1s-1,0.448-1,1v4.437H5.032c-0.552,0-1,0.448-1,1s0.448,1,1,1
		h4.437v4.437c0,0.553,0.448,1,1,1s1-0.447,1-1v-4.437h4.437c0.553,0,1-0.448,1-1S16.458,9.236,15.905,9.236z"/>
	<path fill="#676767" d="M10.236,0C4.592,0,0,4.592,0,10.236s4.592,10.236,10.236,10.236s10.236-4.592,10.236-10.236
		S15.881,0,10.236,0z M10.236,19c-4.832,0-8.764-3.932-8.764-8.764s3.932-8.764,8.764-8.764S19,5.404,19,10.236S15.068,19,10.236,19
		z"/>
</g>
</svg>
