<?xml version="1.0" encoding="utf-8"?>
<!-- Generator: Adobe Illustrator 15.1.0, SVG Export Plug-In . SVG Version: 6.00 Build 0)  -->
<!DOCTYPE svg PUBLIC "-//W3C//DTD SVG 1.1//EN" "http://www.w3.org/Graphics/SVG/1.1/DTD/svg11.dtd">
<svg version="1.1" id="Layer_1" xmlns="http://www.w3.org/2000/svg" xmlns:xlink="http://www.w3.org/1999/xlink" x="0px" y="0px"
	 width="18.2px" height="21.199px" viewBox="0 0 18.2 21.199" enable-background="new 0 0 18.2 21.199" xml:space="preserve">
<path fill="#FFFFFF" d="M17.1,21.199c-0.607,0-1.1-0.492-1.1-1.1v-6.237H1.1c-0.381,0-0.735-0.196-0.936-0.521
	s-0.219-0.729-0.049-1.07l2.626-5.263L0.11,1.58c-0.165-0.342-0.143-0.743,0.058-1.064C0.369,0.194,0.721,0,1.1,0h16
	c0.607,0,1.1,0.492,1.1,1.1v19C18.2,20.707,17.708,21.199,17.1,21.199 M2.878,11.663H16V2.199H2.856l2.102,4.338
	c0.148,0.306,0.146,0.664-0.006,0.97L2.878,11.663z"/>
</svg>
