<?xml version="1.0" encoding="utf-8"?>
<!-- Generator: Adobe Illustrator 15.1.0, SVG Export Plug-In . SVG Version: 6.00 Build 0)  -->
<!DOCTYPE svg PUBLIC "-//W3C//DTD SVG 1.1//EN" "http://www.w3.org/Graphics/SVG/1.1/DTD/svg11.dtd">
<svg version="1.1" id="Layer_1" xmlns="http://www.w3.org/2000/svg" xmlns:xlink="http://www.w3.org/1999/xlink" x="0px" y="0px"
	 width="81.559px" height="79.156px" viewBox="0 0 81.559 79.156" enable-background="new 0 0 81.559 79.156" xml:space="preserve">
<g>
	<path fill="#FFFFFF" d="M29.393,37.957c5.245,0,9.721-1.852,13.424-5.555c3.703-3.703,5.556-8.176,5.557-13.423
		c0-5.244-1.854-9.722-5.557-13.424C39.115,1.852,34.638,0,29.394,0c-5.248,0-9.723,1.852-13.425,5.555
		c-3.703,3.702-5.556,8.18-5.556,13.424c0,5.247,1.853,9.721,5.556,13.424C19.672,36.105,24.146,37.957,29.393,37.957z"/>
	<path fill="#FFFFFF" d="M70.557,41.939c0-0.674-0.263-1.31-0.74-1.787c-0.95-0.954-2.616-0.955-3.573,0l-7.456,7.455l-7.459-7.459
		c-0.957-0.953-2.617-0.949-3.569,0.002c-0.479,0.479-0.743,1.113-0.743,1.789c0,0.675,0.264,1.311,0.742,1.787l7.456,7.455
		l-7.453,7.453c-0.479,0.479-0.745,1.113-0.745,1.789c0,0.678,0.266,1.312,0.737,1.782c0.942,0.953,2.623,0.958,3.577,0.005
		l7.456-7.457l7.459,7.46c0.479,0.478,1.112,0.739,1.784,0.739c0.676,0,1.31-0.266,1.783-0.741c0.479-0.478,0.742-1.112,0.742-1.788
		c0-0.675-0.264-1.31-0.741-1.785l-7.456-7.457l7.455-7.455C70.293,43.25,70.556,42.614,70.557,41.939z"/>
	<path fill="#FFFFFF" d="M58.786,28.41c-10.915,0-20.058,7.721-22.262,17.986c-2.188-0.22-4.555-0.338-7.132-0.338
		c-12.347,0-20.251,2.51-23.724,7.521C2.199,58.593,0.308,67.119,0,79.154v0.002h58.786c-0.048-1.824-0.142-3.549-0.262-5.211
		c0.088,0,0.175,0.008,0.262,0.008c12.557,0,22.771-10.217,22.771-22.771C81.558,38.625,71.343,28.41,58.786,28.41z M76.529,51.182
		c0,9.783-7.959,17.743-17.741,17.743c-9.783,0-17.743-7.96-17.743-17.743s7.96-17.742,17.743-17.742
		C68.57,33.44,76.529,41.398,76.529,51.182z"/>
</g>
</svg>
