<?xml version="1.0" encoding="utf-8"?>
<!-- Generator: Adobe Illustrator 15.1.0, SVG Export Plug-In . SVG Version: 6.00 Build 0)  -->
<!DOCTYPE svg PUBLIC "-//W3C//DTD SVG 1.1//EN" "http://www.w3.org/Graphics/SVG/1.1/DTD/svg11.dtd">
<svg version="1.1" id="Layer_1" xmlns="http://www.w3.org/2000/svg" xmlns:xlink="http://www.w3.org/1999/xlink" x="0px" y="0px"
	 width="26px" height="9px" viewBox="1.338 3.083 26 9" enable-background="new 1.338 3.083 26 9" xml:space="preserve">
<path fill="#676868" d="M1.338,4.95C1.339,4.75,1.414,4.553,1.566,4.401c0.304-0.303,0.793-0.303,1.098,0l5.812,5.809l5.803-5.807
	c0.306-0.304,0.793-0.304,1.099,0c0.303,0.303,0.301,0.793,0,1.098l-6.354,6.354C8.878,12,8.681,12.083,8.476,12.083
	c-0.207,0-0.401-0.082-0.549-0.228L1.565,5.499C1.414,5.347,1.339,5.147,1.338,4.95z"/>
<path fill="#676868" d="M1.338,4.95C1.339,4.75,1.414,4.553,1.566,4.401c0.304-0.303,0.793-0.303,1.098,0l5.812,5.809l5.803-5.807
	c0.306-0.304,0.793-0.304,1.099,0c0.303,0.303,0.301,0.793,0,1.098l-6.354,6.354C8.878,12,8.681,12.083,8.476,12.083
	c-0.207,0-0.401-0.082-0.549-0.228L1.565,5.499C1.414,5.347,1.339,5.147,1.338,4.95z"/>
</svg>
