<?xml version="1.0" encoding="utf-8"?>
<!-- Generator: Adobe Illustrator 15.1.0, SVG Export Plug-In . SVG Version: 6.00 Build 0)  -->
<!DOCTYPE svg PUBLIC "-//W3C//DTD SVG 1.1//EN" "http://www.w3.org/Graphics/SVG/1.1/DTD/svg11.dtd">
<svg version="1.1" id="Layer_1" xmlns="http://www.w3.org/2000/svg" xmlns:xlink="http://www.w3.org/1999/xlink" x="0px" y="0px"
	 width="20px" height="20px" viewBox="0 0 20 20" enable-background="new 0 0 20 20" xml:space="preserve">
<path fill="#FFFFFF" d="M11.414,10l8.293-8.293c0.391-0.391,0.391-1.023,0-1.414s-1.023-0.391-1.414,0L10,8.586L1.707,0.293
	c-0.391-0.391-1.023-0.391-1.414,0s-0.391,1.023,0,1.414L8.586,10l-8.293,8.293c-0.391,0.391-0.391,1.023,0,1.414
	C0.488,19.902,0.744,20,1,20s0.512-0.098,0.707-0.293L10,11.414l8.293,8.293C18.488,19.902,18.744,20,19,20s0.512-0.098,0.707-0.293
	c0.391-0.391,0.391-1.023,0-1.414L11.414,10z"/>
</svg>
