<?xml version="1.0" encoding="utf-8"?>
<!-- Generator: Adobe Illustrator 15.1.0, SVG Export Plug-In . SVG Version: 6.00 Build 0)  -->
<!DOCTYPE svg PUBLIC "-//W3C//DTD SVG 1.1//EN" "http://www.w3.org/Graphics/SVG/1.1/DTD/svg11.dtd">
<svg version="1.1" id="Layer_1" xmlns="http://www.w3.org/2000/svg" xmlns:xlink="http://www.w3.org/1999/xlink" x="0px" y="0px"
	 width="24px" height="24px" viewBox="0 0 24 24" enable-background="new 0 0 24 24" xml:space="preserve">
<g>
	<path fill="#FFFFFF" d="M12,0C5.372,0,0,5.373,0,12s5.372,12,12,12s12-5.373,12-12S18.628,0,12,0z M9.957,6.353
		c0-1.146,0.991-2.076,2.207-2.076c1.22,0,2.208,0.931,2.208,2.078c0,0.005-0.002,0.014-0.002,0.02v0.004l-0.638,6.09
		c-0.069,0.79-0.744,1.438-1.568,1.438c-0.822,0-1.496-0.649-1.568-1.438L9.957,6.382l0.002-0.008
		C9.959,6.367,9.957,6.36,9.957,6.353z M12.216,19.693c-1.247,0-2.26-1.012-2.26-2.258c0-1.248,1.013-2.26,2.26-2.26
		c1.247,0,2.259,1.012,2.259,2.26C14.475,18.682,13.463,19.693,12.216,19.693z"/>
</g>
</svg>
