<?xml version="1.0" encoding="utf-8"?>
<!-- Generator: Adobe Illustrator 15.1.0, SVG Export Plug-In . SVG Version: 6.00 Build 0)  -->
<!DOCTYPE svg PUBLIC "-//W3C//DTD SVG 1.1//EN" "http://www.w3.org/Graphics/SVG/1.1/DTD/svg11.dtd">
<svg version="1.1" id="Layer_1" xmlns="http://www.w3.org/2000/svg" xmlns:xlink="http://www.w3.org/1999/xlink" x="0px" y="0px"
	 width="20.1px" height="20.1px" viewBox="0 0 20.1 20.1" enable-background="new 0 0 20.1 20.1" xml:space="preserve">
<path fill="#126BC5" d="M19.792,18.308l-4.581-4.58c1.163-1.486,1.8-3.305,1.799-5.223C17.01,3.815,13.196,0,8.505,0
	S0,3.815,0,8.504c-0.001,2.271,0.883,4.408,2.488,6.014c1.606,1.607,3.743,2.492,6.016,2.493c0,0,0,0,0.001,0
	c1.917-0.001,3.733-0.638,5.221-1.8l4.581,4.58c0.205,0.205,0.474,0.308,0.742,0.308c0.268,0,0.537-0.103,0.742-0.308
	C20.202,19.382,20.202,18.718,19.792,18.308z M8.505,14.912c-1.712-0.001-3.321-0.668-4.53-1.878C2.765,11.824,2.1,10.216,2.1,8.505
	C2.1,4.973,4.973,2.1,8.508,2.1c3.53,0,6.402,2.874,6.402,6.406c0.001,1.71-0.665,3.319-1.875,4.529S10.217,14.911,8.505,14.912z"/>
</svg>
