<?xml version="1.0" encoding="utf-8"?>
<!-- Generator: Adobe Illustrator 15.1.0, SVG Export Plug-In . SVG Version: 6.00 Build 0)  -->
<!DOCTYPE svg PUBLIC "-//W3C//DTD SVG 1.1//EN" "http://www.w3.org/Graphics/SVG/1.1/DTD/svg11.dtd">
<svg version="1.1" id="Layer_1" xmlns="http://www.w3.org/2000/svg" xmlns:xlink="http://www.w3.org/1999/xlink" x="0px" y="0px"
	 width="19.55px" height="17.55px" viewBox="0 0 19.55 17.55" enable-background="new 0 0 19.55 17.55" xml:space="preserve">
<path fill="#676868" d="M18.775,7.561h-2.553V0.775C16.222,0.347,15.875,0,15.447,0H4.103C3.675,0,3.328,0.347,3.328,0.775v6.786
	H0.775C0.347,7.561,0,7.907,0,8.335v5.673c0,0.428,0.347,0.775,0.775,0.775h2.553v1.991c0,0.428,0.347,0.775,0.775,0.775h11.359
	c0.428,0,0.775-0.348,0.775-0.775v-1.991h2.537c0.428,0,0.775-0.348,0.775-0.775V8.335C19.55,7.907,19.203,7.561,18.775,7.561z
	 M4.878,1.55h9.793v6.011H4.878V1.55z M14.687,13.233v0.775v0.775V16H4.878v-1.216v-0.775v-0.775v-0.791h9.809V13.233z M18,13.233
	h-1.762v-1.566c0-0.428-0.348-0.775-0.775-0.775H4.103c-0.428,0-0.775,0.348-0.775,0.775v1.566H1.55V9.11h2.069H15.93H18V13.233z"/>
</svg>
