<?xml version="1.0" encoding="utf-8"?>
<!-- Generator: Adobe Illustrator 15.1.0, SVG Export Plug-In . SVG Version: 6.00 Build 0)  -->
<!DOCTYPE svg PUBLIC "-//W3C//DTD SVG 1.1//EN" "http://www.w3.org/Graphics/SVG/1.1/DTD/svg11.dtd">
<svg version="1.1" id="Layer_1" xmlns="http://www.w3.org/2000/svg" xmlns:xlink="http://www.w3.org/1999/xlink" x="0px" y="0px"
	 width="29px" height="18.584px" viewBox="0 0 29 18.584" enable-background="new 0 0 29 18.584" xml:space="preserve">
<path fill="#676868" d="M18.667,0H0.775C0.347,0,0,0.347,0,0.775V17.81c0,0.428,0.348,0.774,0.775,0.774h17.893
	c0.429,0,0.775-0.349,0.775-0.774V0.775C19.443,0.347,19.096,0,18.667,0z M1.55,1.55h16.344v4.648H1.55V1.55z M17.893,17.034H1.55
	V7.748h16.344V17.034z"/>
<path fill="#676868" d="M9.783,15.521H5.119v-1.143l1.569-1.587c0.446-0.469,0.74-0.788,0.879-0.96
	c0.137-0.171,0.231-0.318,0.287-0.441c0.055-0.123,0.082-0.252,0.082-0.387c0-0.167-0.056-0.299-0.164-0.396
	c-0.107-0.097-0.26-0.145-0.458-0.145c-0.201,0-0.406,0.059-0.611,0.173c-0.207,0.116-0.44,0.286-0.702,0.513l-0.954-1.115
	C5.38,9.737,5.658,9.526,5.884,9.398C6.109,9.271,6.354,9.173,6.62,9.106c0.267-0.067,0.562-0.101,0.896-0.101
	c0.417,0,0.788,0.073,1.113,0.22c0.326,0.147,0.58,0.355,0.761,0.625c0.182,0.271,0.271,0.574,0.271,0.914
	c0,0.252-0.031,0.482-0.096,0.696c-0.062,0.214-0.16,0.424-0.291,0.631c-0.133,0.206-0.308,0.425-0.525,0.652
	c-0.218,0.229-0.684,0.662-1.396,1.301v0.044h2.432V15.521z"/>
<path fill="#676868" d="M14.264,15.521h-1.764v-3.399c0-0.413,0.012-0.791,0.026-1.136c-0.108,0.134-0.243,0.271-0.403,0.414
	l-0.729,0.603l-0.9-1.106L12.7,9.097h1.563L14.264,15.521L14.264,15.521z"/>
</svg>
