<?xml version="1.0" encoding="utf-8"?>
<!-- Generator: Adobe Illustrator 15.1.0, SVG Export Plug-In . SVG Version: 6.00 Build 0)  -->
<!DOCTYPE svg PUBLIC "-//W3C//DTD SVG 1.1//EN" "http://www.w3.org/Graphics/SVG/1.1/DTD/svg11.dtd">
<svg version="1.1" id="Layer_1" xmlns="http://www.w3.org/2000/svg" xmlns:xlink="http://www.w3.org/1999/xlink" x="0px" y="0px"
	 width="22.098px" height="22.096px" viewBox="0 0 22.098 22.096" enable-background="new 0 0 22.098 22.096" xml:space="preserve">
<path fill="#959595" d="M11.048,22.096C4.956,22.096,0,17.141,0,11.048C0,4.956,4.956,0,11.048,0c6.093,0,11.05,4.956,11.05,11.048
	C22.098,17.141,17.141,22.096,11.048,22.096z M11.048,1C5.507,1,1,5.507,1,11.048c0,5.54,4.507,10.048,10.048,10.048
	s10.05-4.508,10.05-10.048C21.098,5.507,16.589,1,11.048,1z"/>
<path fill="#0B6EFD" d="M11.049,3.495c-4.165,0-7.554,3.388-7.554,7.553s3.389,7.554,7.554,7.554s7.555-3.389,7.555-7.554
	S15.214,3.495,11.049,3.495z"/>
</svg>
