<?xml version="1.0" encoding="utf-8"?>
<!-- Generator: Adobe Illustrator 15.1.0, SVG Export Plug-In . SVG Version: 6.00 Build 0)  -->
<!DOCTYPE svg PUBLIC "-//W3C//DTD SVG 1.1//EN" "http://www.w3.org/Graphics/SVG/1.1/DTD/svg11.dtd">
<svg version="1.1" id="Layer_1" xmlns="http://www.w3.org/2000/svg" xmlns:xlink="http://www.w3.org/1999/xlink" x="0px" y="0px"
	 width="175.826px" height="175.807px" viewBox="0 0 175.826 175.807" enable-background="new 0 0 175.826 175.807"
	 xml:space="preserve">
<path fill="#FFFFFF" d="M127.015,175.806c-0.002,0-0.004,0-0.006,0c-33.667-0.006-77.82-44.369-80.201-46.787
	c-1.03-1.016-15.442-15.323-28.034-33.616C0.649,69.074-4.384,48.143,3.814,33.188C16.057,10.856,28.01,0,40.356,0
	c7.814,0,14.991,4.411,21.331,13.108c13.017,17.858,27.728,38.042,3.755,61.823c0.815,2.262,3.911,8.254,15.611,19.773
	c11.572,11.751,17.576,14.858,19.84,15.676c8.517-8.589,17.108-12.771,26.201-12.771c12.945,0,24.992,8.781,35.622,16.528
	c9.204,6.707,13.601,14.323,13.066,22.635c-0.765,11.902-11.607,23.429-33.146,35.236
	C138.044,174.529,132.788,175.806,127.015,175.806z M40.356,12c-4.198,0-13.162,3.502-26.02,26.957
	c-12.093,22.059,25.437,66.336,40.917,81.537l0.076,0.076c0.425,0.433,42.829,43.23,71.68,43.236c0.001,0,0.004,0,0.006,0
	c3.786,0,7.008-0.759,9.853-2.317c22.817-12.51,26.673-21.336,26.938-25.484c0.254-3.943-2.49-8.038-8.158-12.168
	c-11.428-8.33-20.166-14.226-28.554-14.226c-6.282,0-12.375,3.426-19.173,10.782l-0.293,0.316l-0.335,0.272
	c-0.78,0.631-2.508,1.69-5.331,1.69c-6.872,0-16.487-6.372-29.395-19.48C55.68,86.566,49.695,74.882,54.844,68.532l0.271-0.335
	l0.316-0.293c17.893-16.538,11.125-27.738-3.443-47.726C48.035,14.751,44.122,12,40.356,12z"/>
</svg>
