<?xml version="1.0" encoding="utf-8"?>
<!-- Generator: Adobe Illustrator 15.1.0, SVG Export Plug-In . SVG Version: 6.00 Build 0)  -->
<!DOCTYPE svg PUBLIC "-//W3C//DTD SVG 1.1//EN" "http://www.w3.org/Graphics/SVG/1.1/DTD/svg11.dtd">
<svg version="1.1" id="Layer_1" xmlns="http://www.w3.org/2000/svg" xmlns:xlink="http://www.w3.org/1999/xlink" x="0px" y="0px"
	 width="24px" height="24px" viewBox="0 0 24 24" enable-background="new 0 0 24 24" xml:space="preserve">
<path fill="#2CA751" d="M11.998,0C5.372,0,0,5.371,0,12c0,6.627,5.372,12,11.998,12C18.626,24,24,18.627,24,12
	C24,5.371,18.626,0,11.998,0 M11.387,20.488c-0.189,0.288-0.573,0.361-0.854,0.162l-6.352-4.497c-0.28-0.2-0.351-0.594-0.155-0.878
	l1.211-1.762c0.195-0.283,0.585-0.354,0.865-0.153l3.537,2.503c0.281,0.199,0.665,0.126,0.854-0.162l7.023-10.709
	c0.188-0.288,0.577-0.366,0.862-0.173l1.759,1.19c0.285,0.191,0.364,0.585,0.175,0.873L11.387,20.488z"/>
</svg>
