<?xml version="1.0" encoding="utf-8"?>
<!-- Generator: Adobe Illustrator 15.1.0, SVG Export Plug-In . SVG Version: 6.00 Build 0)  -->
<!DOCTYPE svg PUBLIC "-//W3C//DTD SVG 1.1//EN" "http://www.w3.org/Graphics/SVG/1.1/DTD/svg11.dtd">
<svg version="1.1" id="Layer_1" xmlns="http://www.w3.org/2000/svg" xmlns:xlink="http://www.w3.org/1999/xlink" x="0px" y="0px"
	 width="23.2px" height="19.2px" viewBox="0 0 23.2 19.2" enable-background="new 0 0 23.2 19.2" xml:space="preserve">
<path fill="#FFFFFF" d="M22.1,2.2h-21C0.493,2.2,0,1.708,0,1.1S0.493,0,1.1,0h21c0.607,0,1.1,0.493,1.1,1.1S22.708,2.2,22.1,2.2z"/>
<path fill="#FFFFFF" d="M22.1,10.7h-21C0.493,10.7,0,10.208,0,9.6s0.493-1.1,1.1-1.1h21c0.607,0,1.1,0.493,1.1,1.1
	S22.708,10.7,22.1,10.7z"/>
<path fill="#FFFFFF" d="M22.1,19.2h-21c-0.607,0-1.1-0.492-1.1-1.1S0.493,17,1.1,17h21c0.607,0,1.1,0.492,1.1,1.1
	S22.708,19.2,22.1,19.2z"/>
</svg>
