<?xml version="1.0" encoding="utf-8"?>
<!-- Generator: Adobe Illustrator 15.1.0, SVG Export Plug-In . SVG Version: 6.00 Build 0)  -->
<!DOCTYPE svg PUBLIC "-//W3C//DTD SVG 1.1//EN" "http://www.w3.org/Graphics/SVG/1.1/DTD/svg11.dtd">
<svg version="1.1" id="Layer_1" xmlns="http://www.w3.org/2000/svg" xmlns:xlink="http://www.w3.org/1999/xlink" x="0px" y="0px"
	 width="19.667px" height="19.666px" viewBox="0 0 19.667 19.666" enable-background="new 0 0 19.667 19.666" xml:space="preserve">
<g>
	<path fill="#0B6EFD" d="M19.667,16.426c0,1.782-1.458,3.24-3.24,3.24H3.24c-1.782,0-3.24-1.458-3.24-3.24V3.24
		C0,1.458,1.458,0,3.24,0h13.186c1.782,0,3.24,1.458,3.24,3.24L19.667,16.426L19.667,16.426z"/>
</g>
<path fill="#FFFFFF" d="M16.757,3.811l-1.466-0.99c-0.455-0.308-1.115-0.172-1.417,0.284l-5.856,8.924L5.071,9.943
	c-0.447-0.314-1.112-0.195-1.422,0.253L2.64,11.663c-0.318,0.461-0.205,1.101,0.252,1.424l5.292,3.748
	c0.171,0.121,0.373,0.187,0.581,0.187c0.339,0,0.652-0.17,0.838-0.455L17.04,5.229C17.348,4.763,17.223,4.128,16.757,3.811z
	 M8.765,16.511L8.765,16.511v0.011V16.511z"/>
</svg>
