<?xml version="1.0" encoding="utf-8"?>
<!-- Generator: Adobe Illustrator 15.1.0, SVG Export Plug-In . SVG Version: 6.00 Build 0)  -->
<!DOCTYPE svg PUBLIC "-//W3C//DTD SVG 1.1//EN" "http://www.w3.org/Graphics/SVG/1.1/DTD/svg11.dtd">
<svg version="1.1" id="Layer_1" xmlns="http://www.w3.org/2000/svg" xmlns:xlink="http://www.w3.org/1999/xlink" x="0px" y="0px"
	 width="19.328px" height="19.326px" viewBox="0 0 19.328 19.326" enable-background="new 0 0 19.328 19.326" xml:space="preserve">
<g>
	<path fill="#FFFFFF" d="M9.663,11.365c-2.401,0-4.552,1.096-5.979,2.812l1.856,1.855c0.947-1.254,2.436-2.076,4.123-2.076
		c1.689,0,3.176,0.822,4.125,2.076l1.854-1.855C14.216,12.461,12.065,11.365,9.663,11.365z"/>
	<path fill="#FFFFFF" d="M9.663,16.457c-1.001,0-1.865,0.558-2.328,1.372l0.914,0.914c0.778,0.777,2.051,0.777,2.829,0l0.914-0.914
		C11.53,17.015,10.666,16.457,9.663,16.457z"/>
	<path fill="#FFFFFF" d="M9.663,8.865c3.092,0,5.861,1.378,7.747,3.546l1.334-1.334c0.777-0.777,0.777-2.051,0-2.828l-7.666-7.666
		c-0.777-0.777-2.051-0.777-2.829,0L0.583,8.249c-0.778,0.777-0.778,2.051,0,2.828l1.333,1.334
		C3.802,10.243,6.572,8.865,9.663,8.865z M8.667,3.565l0.996-2.019l0.997,2.019l2.229,0.324l-1.611,1.572l0.381,2.22L9.663,6.633
		L7.671,7.682l0.381-2.22L6.438,3.89L8.667,3.565z"/>
</g>
<g>
	<path fill="#FFFFFF" d="M58.041,0H45.24c-0.669,0-1.216,0.547-1.216,1.216v9.752c0,0.668,0.39,1.6,0.864,2.069l5.887,5.819
		c0.477,0.471,1.253,0.471,1.729,0l5.888-5.819c0.476-0.47,0.864-1.401,0.864-2.069V1.216C59.255,0.547,58.708,0,58.041,0z
		 M51.32,12.675c0,0.705-0.195,1.229-0.591,1.572c-0.394,0.343-0.938,0.516-1.633,0.516c-0.705,0-1.251-0.172-1.638-0.513
		c-0.387-0.34-0.58-0.865-0.58-1.575V9.438h1.146v3.237c0,0.143,0.013,0.28,0.037,0.416c0.024,0.137,0.075,0.258,0.151,0.361
		c0.078,0.104,0.188,0.189,0.326,0.255c0.137,0.065,0.323,0.099,0.558,0.099c0.407,0,0.69-0.091,0.846-0.272
		c0.156-0.183,0.233-0.468,0.233-0.857V9.438h1.145V12.675z M49.35,7.836l0.438-2.552l-1.854-1.807l2.562-0.373l1.146-2.32
		l1.145,2.32l2.562,0.373l-1.854,1.807l0.438,2.552L51.64,6.63L49.35,7.836z M56.222,13.763c-0.094,0.203-0.23,0.381-0.413,0.528
		s-0.408,0.265-0.679,0.347c-0.27,0.082-0.582,0.125-0.938,0.125c-0.285,0-0.564-0.037-0.835-0.106
		c-0.271-0.07-0.508-0.183-0.715-0.332c-0.206-0.15-0.37-0.343-0.491-0.575c-0.122-0.234-0.181-0.512-0.176-0.832h1.107
		c0,0.175,0.033,0.323,0.096,0.443c0.062,0.123,0.146,0.222,0.252,0.297c0.105,0.074,0.229,0.131,0.367,0.168
		c0.142,0.035,0.287,0.055,0.438,0.055c0.103,0,0.212-0.009,0.328-0.025c0.117-0.018,0.228-0.049,0.328-0.099
		c0.103-0.049,0.188-0.116,0.256-0.2s0.103-0.193,0.103-0.324c0-0.142-0.045-0.256-0.135-0.344c-0.091-0.087-0.209-0.16-0.354-0.219
		s-0.312-0.109-0.496-0.152c-0.185-0.045-0.372-0.093-0.562-0.146c-0.195-0.049-0.385-0.107-0.568-0.18
		c-0.186-0.069-0.352-0.16-0.496-0.272c-0.146-0.11-0.264-0.252-0.354-0.419c-0.092-0.168-0.136-0.371-0.136-0.609
		c0-0.268,0.058-0.498,0.171-0.695c0.114-0.197,0.264-0.361,0.448-0.492c0.187-0.131,0.396-0.229,0.627-0.292
		c0.233-0.062,0.468-0.095,0.7-0.095c0.271,0,0.533,0.03,0.783,0.091c0.252,0.062,0.474,0.159,0.668,0.296
		c0.195,0.136,0.35,0.31,0.463,0.521c0.115,0.211,0.172,0.467,0.172,0.77h-1.107c-0.011-0.155-0.043-0.285-0.1-0.387
		c-0.057-0.104-0.13-0.184-0.223-0.241c-0.092-0.058-0.197-0.101-0.316-0.124c-0.12-0.023-0.25-0.036-0.391-0.036
		c-0.094,0-0.186,0.01-0.277,0.028c-0.092,0.021-0.176,0.055-0.251,0.104s-0.138,0.109-0.187,0.182
		c-0.049,0.073-0.072,0.166-0.072,0.277c0,0.104,0.019,0.186,0.058,0.248s0.115,0.122,0.229,0.175
		c0.113,0.054,0.271,0.107,0.475,0.16c0.202,0.054,0.466,0.122,0.791,0.204c0.098,0.02,0.232,0.055,0.404,0.105
		c0.173,0.052,0.344,0.134,0.515,0.244c0.17,0.111,0.317,0.262,0.44,0.448c0.125,0.187,0.187,0.427,0.187,0.72
		C56.359,13.336,56.313,13.558,56.222,13.763z"/>
	<path fill="#FFFFFF" d="M76.309,0h-12.8c-0.668,0-1.215,0.547-1.215,1.216v9.752c0,0.668,0.389,1.6,0.863,2.069l1.008,0.997v-4.28
		h1.459v5.724l1.885,1.861V9.754h1.457v9.027l0.078,0.075c0.477,0.471,1.254,0.471,1.729,0l0.077-0.075V9.754h1.459v7.585
		l1.884-1.861V9.754h1.459v4.28l1.009-0.997c0.476-0.47,0.863-1.401,0.863-2.069V1.216C77.524,0.547,76.978,0,76.309,0z
		 M71.763,5.284l0.438,2.552L69.91,6.63l-2.291,1.206l0.438-2.552l-1.854-1.807l2.562-0.373l1.146-2.32l1.145,2.32l2.562,0.373
		L71.763,5.284z"/>
</g>
</svg>
