<?xml version="1.0" encoding="utf-8"?>
<!-- Generator: Adobe Illustrator 15.1.0, SVG Export Plug-In . SVG Version: 6.00 Build 0)  -->
<!DOCTYPE svg PUBLIC "-//W3C//DTD SVG 1.1//EN" "http://www.w3.org/Graphics/SVG/1.1/DTD/svg11.dtd">
<svg version="1.1" id="Layer_1" xmlns="http://www.w3.org/2000/svg" xmlns:xlink="http://www.w3.org/1999/xlink" x="0px" y="0px"
	 width="19.667px" height="19.666px" viewBox="0 0 19.667 19.666" enable-background="new 0 0 19.667 19.666" xml:space="preserve">
<path fill="#959595" d="M16.426,1c1.235,0,2.24,1.005,2.24,2.24v13.186c0,1.235-1.005,2.24-2.24,2.24H3.24
	c-1.235,0-2.24-1.005-2.24-2.24V3.24C1,2.005,2.005,1,3.24,1H16.426 M16.426,0H3.24C1.458,0,0,1.458,0,3.24v13.186
	c0,1.782,1.458,3.24,3.24,3.24h13.187c1.782,0,3.24-1.458,3.24-3.24V3.24C19.667,1.458,18.208,0,16.426,0L16.426,0z"/>
</svg>
