<?xml version="1.0" encoding="utf-8"?>
<!-- Generator: Adobe Illustrator 15.1.0, SVG Export Plug-In . SVG Version: 6.00 Build 0)  -->
<!DOCTYPE svg PUBLIC "-//W3C//DTD SVG 1.1//EN" "http://www.w3.org/Graphics/SVG/1.1/DTD/svg11.dtd">
<svg version="1.1" id="Layer_1" xmlns="http://www.w3.org/2000/svg" xmlns:xlink="http://www.w3.org/1999/xlink" x="0px" y="0px"
	 width="250.104px" height="217px" viewBox="0 0 250.104 217" enable-background="new 0 0 250.104 217" xml:space="preserve">
<g>
	<path fill="#414042" d="M111.444,148.348v34.906h34.906l81.451-81.45l-34.907-34.908L111.444,148.348z M141.503,171.619h-6.787
		v-11.637h-11.637v-6.787l14.061-14.061l18.424,18.424L141.503,171.619z M194.713,88.35l-42.423,42.421
		c-1.375,1.375-2.708,1.416-4,0.121c-1.293-1.291-1.254-2.625,0.121-4l42.423-42.421c1.373-1.373,2.706-1.413,4-0.121
		C196.125,85.644,196.086,86.977,194.713,88.35z"/>
	<path fill="#414042" d="M246.71,66.412l-18.424-18.423c-2.264-2.261-5.012-3.395-8.241-3.395c-3.233,0-5.981,1.133-8.242,3.395
		L200.651,59.14l34.907,34.907l11.151-11.151c2.261-2.261,3.394-5.009,3.394-8.242C250.104,71.423,248.971,68.675,246.71,66.412z"/>
</g>
<path fill="#414042" d="M139.182,78.497c0-1.131-0.363-2.061-1.091-2.788s-1.657-1.091-2.787-1.091H49.975
	c-1.133,0-2.061,0.364-2.788,1.091c-0.728,0.728-1.091,1.657-1.091,2.788v7.757c0,1.133,0.363,2.061,1.091,2.788
	c0.729,0.727,1.655,1.091,2.788,1.091h85.329c1.13,0,2.062-0.364,2.787-1.091c0.728-0.728,1.091-1.655,1.091-2.788V78.497z"/>
<path fill="#414042" d="M139.182,47.468c0-1.131-0.363-2.061-1.091-2.788c-0.728-0.728-1.657-1.091-2.787-1.091H49.975
	c-1.133,0-2.061,0.364-2.788,1.091s-1.091,1.657-1.091,2.788v7.757c0,1.132,0.363,2.06,1.091,2.788
	c0.729,0.727,1.655,1.091,2.788,1.091h85.329c1.13,0,2.062-0.364,2.787-1.091c0.728-0.728,1.091-1.655,1.091-2.788V47.468z"/>
<path fill="#414042" d="M172.535,61.804c1.618,0.646,3.087,0.363,4.299-0.849l7.916-7.757c0.727-0.727,1.25-1.617,1.25-2.667V11.577
	c0-3.231-1.269-5.95-3.531-8.213C180.207,1.103,177.322,0,174.09,0H11.188C7.956,0,5.432,1.104,3.17,3.365
	C0.907,5.628,0,8.347,0,11.578v193.93c0,3.231,0.907,5.908,3.17,8.17C5.432,215.939,7.956,217,11.188,217H174.09
	c3.229,0,6.115-1.061,8.379-3.322c2.262-2.263,3.531-4.938,3.531-8.17v-30.367c0-1.697-0.939-2.867-2.556-3.516
	c-1.617-0.646-3.096-0.363-4.308,0.85l-7.902,7.756c-0.727,0.728-1.234,1.617-1.234,2.668V202H15V15h155v43.289
	C170,59.986,170.92,61.156,172.535,61.804z"/>
<path fill="#414042" d="M91.808,167.704H49.975c-1.133,0-2.061,0.364-2.788,1.091c-0.728,0.729-1.091,1.657-1.091,2.788v7.757
	c0,1.133,0.363,2.061,1.091,2.788c0.729,0.728,1.655,1.091,2.788,1.091h41.833c1.13,0,2.062-0.363,2.787-1.091
	c0.729-0.728,1.091-1.655,1.091-2.788v-7.757c0-1.13-0.362-2.06-1.091-2.788C93.868,168.068,92.938,167.704,91.808,167.704z"/>
<path fill="#414042" d="M126.389,108.247c-0.646-1.615-1.818-2.247-3.515-2.247H49.975c-1.133,0-2.107,0.187-2.836,0.914
	c-0.728,0.728-1.139,1.48-1.139,2.611v7.757c0,1.133,0.411,1.979,1.139,2.708c0.729,0.727,1.703,1.01,2.836,1.01h65.144
	c1.049,0,1.938-0.284,2.666-1.01l7.758-7.629C126.752,111.148,127.035,109.865,126.389,108.247z"/>
<path fill="#414042" d="M91.808,136.675H49.975c-1.133,0-2.061,0.364-2.788,1.091c-0.728,0.729-1.091,1.657-1.091,2.789v7.756
	c0,1.133,0.363,2.062,1.091,2.789c0.729,0.727,1.655,1.09,2.788,1.09h41.833c1.13,0,2.062-0.363,2.787-1.09
	c0.729-0.729,1.091-1.656,1.091-2.789v-7.756c0-1.131-0.362-2.061-1.091-2.789C93.868,137.039,92.938,136.675,91.808,136.675z"/>
</svg>
