<?xml version="1.0" encoding="utf-8"?>
<!-- Generator: Adobe Illustrator 15.1.0, SVG Export Plug-In . SVG Version: 6.00 Build 0)  -->
<!DOCTYPE svg PUBLIC "-//W3C//DTD SVG 1.1//EN" "http://www.w3.org/Graphics/SVG/1.1/DTD/svg11.dtd">
<svg version="1.1" id="Layer_1" xmlns="http://www.w3.org/2000/svg" xmlns:xlink="http://www.w3.org/1999/xlink" x="0px" y="0px"
	 width="44px" height="44px" viewBox="-12.686 -12.689 44 44" enable-background="new -12.686 -12.689 44 44" xml:space="preserve">
<g>
	<path fill="#FFFFFF" d="M3.052-12.689c-0.857,0-1.554,0.695-1.554,1.553v10.889h28.763L17.164-12.689H3.052L3.052-12.689z"/>
	<path fill="#FFFFFF" d="M31.314,3.049c0-0.858-0.695-1.553-1.554-1.553H18.877v28.771l12.435-13.105L31.314,3.049L31.314,3.049z"/>
	<path fill="#FFFFFF" d="M15.577,31.311c0.854,0,1.549-0.695,1.549-1.555V18.869h-28.763L1.461,31.311H15.577L15.577,31.311z"/>
	<path fill="#FFFFFF" d="M-12.686,15.575c0,0.858,0.695,1.556,1.553,1.556h10.886v-28.771L-12.686,1.462V15.575L-12.686,15.575z"/>
</g>
</svg>
